<svg xmlns="http://www.w3.org/2000/svg" width="398" height="398" viewBox="0 0 398 398" fill="none"><path opacity="0.5" d="M4.84814 198.77C4.84814 305.87 91.6699 392.691 198.77 392.691C305.87 392.691 392.692 305.87 392.692 198.77C392.692 91.6694 305.87 4.84766 198.77 4.84766C91.6699 4.84766 4.84814 91.6694 4.84814 198.77Z" stroke="url(#paint0_linear_104_2)" stroke-width="9.69609" stroke-dasharray="1.62 9.7"></path><path opacity="0.8" d="M198.747 331.467C272.047 331.467 331.468 272.046 331.468 198.746C331.468 125.447 272.047 66.0254 198.747 66.0254C125.447 66.0254 66.0259 125.447 66.0259 198.746C66.0259 272.046 125.447 331.467 198.747 331.467Z" fill="url(#paint1_linear_104_2)"></path><path d="M198.745 258.258C231.612 258.258 258.257 231.614 258.257 198.747C258.257 165.88 231.612 139.235 198.745 139.235C165.878 139.235 139.234 165.88 139.234 198.747C139.234 231.614 165.878 258.258 198.745 258.258Z" stroke="white" stroke-width="0.577148"></path><path d="M111.88 169.736L111.327 171.296L108.035 170.168C107.132 169.869 106.423 169.537 105.775 168.802L101.334 163.859L99.0589 170.275L97.6787 169.786L100.608 161.523L101.647 161.892L106.685 167.43C107.192 167.993 107.901 168.326 108.869 168.669L111.88 169.736Z" fill="white"></path><path d="M122.753 148.31L120.214 151.988L109.213 144.392L111.838 140.589C113.989 137.475 116.449 137.626 118.484 139.031L121.864 141.364C123.898 142.769 125.055 144.977 122.753 148.31ZM113.022 141.453L111.342 143.851L119.934 149.783L121.63 147.327C122.991 145.354 122.572 143.887 120.882 142.72L117.502 140.386C115.968 139.328 114.426 139.418 113.022 141.453Z" fill="white"></path><path d="M133.924 134.926L130.076 138.982L129.069 138.026L130.43 136.592L122.705 129.262L121.343 130.697L120.336 129.742L124.184 125.686L125.191 126.641L123.843 128.062L131.569 135.391L132.917 133.97L133.924 134.926Z" fill="white"></path><path d="M138.876 130.232L137.694 131.159L137.353 130.725L132.763 118.036L134.559 116.627L145.798 124.052L146.162 124.515L144.935 125.478L141.668 123.255L137.494 126.53L138.876 130.232ZM134.496 118.489L136.944 125.028L140.341 122.363L134.571 118.43L134.496 118.489Z" fill="white"></path><path d="M156.282 114.298C157.38 116.298 157.071 118.463 154.271 120.001C151.238 121.666 149.859 120.579 149.265 119.495L148.606 118.295L149.969 117.46L150.472 118.377C150.921 119.193 151.777 119.765 153.66 118.731C155.627 117.651 155.431 116.305 154.827 115.205C154.178 114.021 153.296 113.877 151.951 114.115L149.77 114.489C147.775 114.846 146.555 114.323 145.732 112.823C144.743 111.022 145.128 109.076 147.812 107.602C150.529 106.11 151.986 107.025 152.552 108.058L153.303 109.425L151.964 110.225L151.368 109.142C150.966 108.409 150.094 107.846 148.426 108.762C146.709 109.704 146.574 110.841 147.106 111.851C147.674 112.884 148.569 113.131 149.887 112.884L152.093 112.476C153.707 112.176 155.175 112.281 156.282 114.298Z" fill="white"></path><path d="M176.75 110.837L172.408 111.893L169.25 98.9022L173.74 97.8106C177.418 96.9166 179.155 98.6668 179.738 101.069L180.708 105.06C181.293 107.462 180.687 109.88 176.75 110.837ZM174.049 99.2424L171.199 99.9158L173.665 110.06L176.567 109.355C178.895 108.789 179.559 107.414 179.074 105.419L178.103 101.427C177.663 99.6164 176.451 98.6585 174.049 99.2424Z" fill="white"></path><path d="M197.069 108.052L189.1 108.586L188.206 95.2472L195.795 94.7383L195.895 96.2373L189.957 96.6355L190.244 100.924L195.861 100.547L195.96 102.027L190.343 102.404L190.65 106.976L196.969 106.553L197.069 108.052Z" fill="white"></path><path d="M217.056 104.585L217.333 103.166L222.522 104.178L221.242 110.748L220.196 110.544L220.234 109.157C219.313 109.907 218.01 110.428 216.181 110.072C212.765 109.406 212.042 107.153 212.569 104.447L213.369 100.34C213.853 97.8578 215.513 95.7015 219.266 96.4326C222.942 97.1492 223.368 99.4407 223.022 101.214L222.873 101.979L221.23 101.756L221.391 100.935C221.627 99.7216 221.411 98.3428 218.928 97.8589C216.596 97.4042 215.434 98.5922 215.045 100.589L214.256 104.64C213.82 106.88 214.427 108.238 216.685 108.678C219.279 109.184 220.224 107.721 220.474 106.433L220.696 105.294L217.056 104.585Z" fill="white"></path><path d="M228.143 112.788L226.739 112.253L226.935 111.738L235.444 101.264L237.576 102.076L237.007 115.534L236.797 116.085L235.34 115.53L235.56 111.585L230.603 109.696L228.143 112.788ZM235.948 102.982L231.607 108.451L235.64 109.988L236.037 103.016L235.948 102.982Z" fill="white"></path><path d="M249.754 123.25L248.377 122.44L248.669 116.238L246.407 114.908L243.623 119.646L242.196 118.808L248.97 107.282L253.118 109.72C254.954 110.799 255.715 112.658 254.742 114.314L254.038 115.511C253.171 116.986 251.624 117.291 250.245 116.899L250.033 122.774L249.754 123.25ZM249.655 109.383L247.149 113.646L249.264 114.889C250.461 115.592 251.872 115.892 252.692 114.499L253.144 113.728C253.751 112.695 253.425 111.599 251.901 110.703L249.655 109.383Z" fill="white"></path><path d="M255.309 127.251L254.158 126.285L254.513 125.863L265.99 118.765L267.737 120.233L262.778 132.757L262.4 133.208L261.205 132.205L262.71 128.552L258.648 125.139L255.309 127.251ZM265.903 120.554L260.005 124.292L263.311 127.069L265.976 120.615L265.903 120.554Z" fill="white"></path><path d="M267.65 138.706L266.644 137.491L276.935 128.959L278.113 130.379L273.911 142.087L273.948 142.131L282.191 135.298L283.197 136.514L272.906 145.046L271.752 143.655L275.9 131.941L275.864 131.897L267.65 138.706Z" fill="white"></path><path d="M279.482 155.365L278.665 153.927L288.967 148.077L286.986 144.587L288.309 143.836L293.089 152.253L291.765 153.005L289.784 149.515L279.482 155.365Z" fill="white"></path><path d="M285.812 169.32L283.769 164.115L285.061 163.608L285.784 165.449L295.696 161.557L294.973 159.716L296.266 159.208L298.309 164.413L297.016 164.919L296.301 163.097L286.389 166.989L287.104 168.812L285.812 169.32Z" fill="white"></path><path d="M287.968 175.791L287.628 174.328L288.166 174.203L301.605 175.423L302.121 177.646L290.633 184.681L290.058 184.813L289.706 183.294L293.104 181.278L291.906 176.109L287.968 175.791ZM300.461 176.801L293.5 176.247L294.475 180.452L300.482 176.894L300.461 176.801Z" fill="white"></path><path d="M286.005 227.631L286.557 226.071L289.85 227.198C290.753 227.498 291.463 227.83 292.11 228.565L296.551 233.508L298.826 227.092L300.206 227.581L297.277 235.844L296.238 235.475L291.199 229.936C290.693 229.374 289.984 229.041 289.016 228.698L286.005 227.631Z" fill="white"></path><path d="M275.135 249.057L277.674 245.38L288.676 252.975L286.05 256.779C283.899 259.893 281.439 259.742 279.405 258.337L276.025 256.003C273.99 254.598 272.833 252.391 275.135 249.057ZM284.867 255.915L286.546 253.515L277.955 247.585L276.258 250.041C274.897 252.012 275.316 253.481 277.006 254.648L280.387 256.982C281.92 258.04 283.462 257.949 284.867 255.915Z" fill="white"></path><path d="M263.961 262.441L267.809 258.385L268.816 259.341L267.455 260.775L275.18 268.105L276.541 266.67L277.549 267.625L273.701 271.681L272.694 270.726L274.042 269.306L266.317 261.976L264.968 263.397L263.961 262.441Z" fill="white"></path><path d="M259.005 267.136L260.187 266.208L260.527 266.642L265.118 279.332L263.323 280.741L252.082 273.316L251.719 272.852L252.946 271.889L256.212 274.113L260.386 270.838L259.005 267.136ZM263.384 278.879L260.937 272.34L257.541 275.004L263.31 278.938L263.384 278.879Z" fill="white"></path><path d="M241.6 283.07C240.502 281.071 240.81 278.905 243.61 277.368C246.644 275.702 248.022 276.789 248.618 277.873L249.277 279.073L247.912 279.908L247.409 278.992C246.961 278.174 246.105 277.603 244.221 278.637C242.254 279.718 242.45 281.064 243.055 282.164C243.704 283.347 244.587 283.491 245.93 283.252L248.112 282.879C250.107 282.522 251.327 283.046 252.151 284.545C253.139 286.346 252.755 288.293 250.071 289.766C247.354 291.257 245.897 290.343 245.329 289.31L244.579 287.943L245.919 287.142L246.513 288.226C246.916 288.959 247.789 289.521 249.456 288.607C251.172 287.664 251.307 286.527 250.775 285.517C250.208 284.484 249.314 284.238 247.995 284.484L245.79 284.892C244.175 285.193 242.708 285.088 241.6 283.07Z" fill="white"></path><path d="M221.14 286.531L225.482 285.476L228.64 298.465L224.15 299.557C220.472 300.451 218.735 298.7 218.151 296.298L217.181 292.308C216.597 289.906 217.203 287.488 221.14 286.531ZM223.841 298.126L226.691 297.451L224.224 287.307L221.323 288.013C218.995 288.578 218.331 289.953 218.816 291.949L219.787 295.94C220.227 297.752 221.439 298.71 223.841 298.126Z" fill="white"></path><path d="M200.817 289.317L208.785 288.782L209.68 302.121L202.09 302.629L201.99 301.131L207.929 300.733L207.641 296.444L202.025 296.821L201.925 295.341L207.542 294.965L207.235 290.391L200.918 290.815L200.817 289.317Z" fill="white"></path><path d="M180.827 292.783L180.551 294.202L175.361 293.19L176.641 286.62L177.687 286.823L177.649 288.211C178.57 287.46 179.873 286.94 181.703 287.297C185.118 287.961 185.841 290.215 185.315 292.921L184.514 297.027C184.03 299.51 182.37 301.666 178.619 300.935C174.941 300.219 174.516 297.926 174.861 296.153L175.01 295.388L176.653 295.612L176.492 296.433C176.256 297.646 176.472 299.025 178.954 299.509C181.287 299.964 182.448 298.775 182.837 296.778L183.627 292.728C184.063 290.488 183.456 289.13 181.198 288.69C178.604 288.184 177.66 289.647 177.409 290.935L177.187 292.073L180.827 292.783Z" fill="white"></path><path d="M169.746 284.578L171.15 285.114L170.953 285.628L162.445 296.102L160.313 295.29L160.882 281.832L161.092 281.281L162.549 281.836L162.328 285.782L167.286 287.67L169.746 284.578ZM161.939 294.384L166.282 288.916L162.249 287.379L161.852 294.35L161.939 294.384Z" fill="white"></path><path d="M148.128 274.119L149.505 274.928L149.212 281.131L151.474 282.461L154.258 277.723L155.685 278.561L148.91 290.087L144.763 287.649C142.927 286.569 142.167 284.711 143.14 283.055L143.843 281.858C144.71 280.382 146.257 280.079 147.637 280.47L147.847 274.595L148.128 274.119ZM148.227 287.986L150.732 283.723L148.617 282.481C147.42 281.777 146.008 281.477 145.189 282.87L144.736 283.641C144.129 284.673 144.456 285.769 145.981 286.665L148.227 287.986Z" fill="white"></path><path d="M142.577 270.118L143.727 271.085L143.373 271.507L131.895 278.605L130.148 277.137L135.107 264.612L135.486 264.161L136.68 265.164L135.175 268.818L139.238 272.23L142.577 270.118ZM131.983 276.815L137.88 273.077L134.575 270.3L131.91 276.755L131.983 276.815Z" fill="white"></path><path d="M130.238 258.662L131.246 259.877L120.953 268.409L119.776 266.989L123.977 255.281L123.941 255.237L115.698 262.069L114.691 260.854L124.983 252.322L126.136 253.713L121.989 265.426L122.025 265.47L130.238 258.662Z" fill="white"></path><path d="M118.41 242.004L119.226 243.442L108.924 249.292L110.905 252.782L109.582 253.532L104.803 245.115L106.126 244.364L108.107 247.853L118.41 242.004Z" fill="white"></path><path d="M112.074 228.049L114.117 233.252L112.825 233.76L112.102 231.919L102.19 235.811L102.913 237.653L101.62 238.159L99.5771 232.956L100.869 232.448L101.585 234.272L111.498 230.379L110.782 228.556L112.074 228.049Z" fill="white"></path><path d="M109.92 221.576L110.259 223.039L109.722 223.164L96.2823 221.945L95.7671 219.722L107.255 212.688L107.829 212.554L108.181 214.073L104.783 216.09L105.981 221.259L109.92 221.576ZM97.427 220.567L104.387 221.121L103.413 216.916L97.4055 220.474L97.427 220.567Z" fill="white"></path><path d="M181.817 228.654L206.515 179.781V179.374H177.745V169.076H219.548V179.52L194.821 228.654H181.817Z" fill="url(#paint2_linear_104_2)"></path><path d="M181.817 228.654L206.515 179.781V179.374H177.745V169.076H219.548V179.52L194.821 228.654H181.817Z" fill="#FF4400"></path><defs><linearGradient id="paint0_linear_104_2" x1="198.77" y1="4.84766" x2="198.77" y2="332.091" gradientUnits="userSpaceOnUse"><stop stop-color="white"></stop><stop offset="1" stop-color="#0B091D"></stop></linearGradient><linearGradient id="paint1_linear_104_2" x1="233.399" y1="247.25" x2="213.199" y2="57.9453" gradientUnits="userSpaceOnUse"><stop stop-opacity="0"></stop><stop offset="1" stop-color="#333333"></stop></linearGradient><linearGradient id="paint2_linear_104_2" x1="257.161" y1="126.859" x2="172.887" y2="105.633" gradientUnits="userSpaceOnUse"><stop stop-color="#FDCA64"></stop><stop offset="0.590909" stop-color="#A37FF8"></stop><stop offset="1" stop-color="#F27358"></stop></linearGradient></defs></svg>